<?xml version="1.0" encoding="utf-8"?>
<!-- Generator: Adobe Illustrator 22.1.0, SVG Export Plug-In . SVG Version: 6.00 Build 0)  -->
<svg version="1.1" id="Layer_1" xmlns="http://www.w3.org/2000/svg" xmlns:xlink="http://www.w3.org/1999/xlink" x="0px" y="0px"
	 viewBox="0 0 720 720" style="enable-background:new 0 0 720 720;" xml:space="preserve">
<style type="text/css">
	.st0{fill:#FBC226;}
	.st1{opacity:0.6;fill:#FFDD80;stroke:#FBC226;stroke-width:16;stroke-miterlimit:10;}
	.st2{fill:#BAC6D4;}
	.st3{fill:#FFFFFF;}
</style>
<circle class="st0" cx="360" cy="357.2" r="355.6"/>
<path class="st1" d="M22.9,426.5c0,0,123.4-165.7,345.3-51.5s337.1-29.4,328.5-80.6c0,0,69.1,289.4-243.4,390
	c0,0-187.6,66.8-351.6-101.4C101.7,582.9,37.7,514.9,22.9,426.5z"/>
<g>
	<path class="st2" d="M289.3,251.5c0,0,3.2,3.7,9,10.3c45.4,51.7,247,281.9,256.6,295.4c10.9,15.3-6.9,18.9-6.9,18.9
		c-1,50.1-42.9,24.6-45,35.1c-1.3,6.6-7.1,6.3-11.3,5.2c-2.7-0.7-5.2-2.7-6.9-5.4L264,269.2"/>
	
		<ellipse transform="matrix(0.8445 -0.5356 0.5356 0.8445 -75.2247 164.1465)" class="st2" cx="245" cy="211.6" rx="75.2" ry="110.3"/>
</g>
<g>
	<path class="st3" d="M300.7,246.4c0,0,3.3,3.7,9.3,10.3c46.8,51.8,254.6,282.2,264.6,295.8c11.2,15.3-6.7,19.3-6.7,19.3
		c-0.3,50.8-43.1,25.6-45.1,36.3c-1.2,6.7-7.1,6.5-11.4,5.4c-2.7-0.7-5.3-2.7-7.1-5.4L275.2,264.7"/>
	
		<ellipse transform="matrix(0.8366 -0.5478 0.5478 0.8366 -70.9405 172.9223)" class="st3" cx="254.4" cy="205.4" rx="75.4" ry="110.4"/>
</g>
<g>
	<g>
		<path class="st2" d="M469.6,277.3c0,0-2.6,4.2-7.3,11.8c-36.6,59.4-199.7,323.4-209.9,336.8c-11.6,15-20.4-1-20.4-1
			c-48.9,13.9-36.6-34.2-47.5-33.1c-6.8,0.7-8.2-5-8.4-9.4c-0.1-2.8,1.1-5.8,3.2-8.3l265.6-316.1"/>
	</g>
	<path class="st2" d="M409.6,281.1c-9.8-20.7-5.8-36.5-3.9-42c0.4-1.2,1.1-2.4,1.8-3.5C419.8,218.2,519,86.1,519,86.1
		s5.5-7,10.2-4.2c4.2,2.5-0.1,8.6-1.1,9.9c-0.2,0.2-0.3,0.4-0.5,0.7L447.9,213c-1,1.5-1.7,3.1-2.1,4.9c-0.5,2.6-0.4,6,2.9,8.4
		c0,0,4.4,3.4,10.1-3.9c5.7-7.3,83.8-122.4,83.8-122.4s4.4-6.2,8.9-3.2c3.9,2.7,0.3,8-0.7,9.3c-0.2,0.2-0.4,0.5-0.5,0.7l-79.1,120.7
		c0,0-6.3,9.2-0.1,13.5c6.2,4.3,9.7-1.1,11-3.1s84-123.1,84-123.1s3.9-5.7,8.2-2.8c4.3,2.9,1.1,7,1.1,7L492,246.2
		c0,0-3.7,6.1,1.6,9.6c5.3,3.6,8.8,0.5,10-1.2s85.1-125.3,85.1-125.3s3.3-5.3,7.9-2.3c4,2.5,1,7.4,0.1,8.6c-0.2,0.3-0.3,0.5-0.5,0.8
		l-96.3,161.5c0,0-6.6,11.2-22.5,13.8C442,317.6,413.9,290.3,409.6,281.1z"/>
</g>
<g>
	<g>
		<path class="st3" d="M455.7,272.4c0,0-2.7,4.2-7.4,11.7C410.8,343,244.2,604.8,233.7,618c-11.8,14.9-20.4-1.3-20.4-1.3
			c-49,13.3-36.2-34.7-47-33.8c-6.8,0.6-8.2-5.1-8.2-9.5c0-2.8,1.2-5.8,3.3-8.3l269.8-312.4"/>
	</g>
	<path class="st3" d="M395.6,275.4c-9.5-20.8-5.3-36.6-3.3-42c0.5-1.2,1.1-2.4,1.9-3.4c12.5-17.3,113.5-148,113.5-148
		s5.6-6.9,10.2-4.1c4.1,2.5-0.3,8.6-1.2,9.9c-0.2,0.2-0.3,0.4-0.5,0.7l-81.3,119.5c-1,1.5-1.8,3.1-2.1,4.8c-0.6,2.6-0.4,6,2.8,8.4
		c0,0,4.4,3.5,10.1-3.8c5.8-7.3,85.5-121.2,85.5-121.2s4.5-6.2,8.9-3.1c3.9,2.7,0.2,8-0.8,9.3c-0.2,0.2-0.4,0.5-0.5,0.7l-80.8,119.6
		c0,0-6.4,9.1-0.2,13.5s9.7-1,11-2.9s85.7-121.9,85.7-121.9s4-5.7,8.2-2.7c4.2,3,1,7,1,7l-85.1,126c0,0-3.8,6,1.5,9.6
		c5.3,3.6,8.8,0.7,10.1-1.1c1.2-1.8,86.8-124.1,86.8-124.1s3.4-5.2,8-2.2c4,2.6,0.9,7.4,0,8.6c-0.2,0.3-0.4,0.5-0.5,0.8l-98.4,160.2
		c0,0-6.8,11.1-22.7,13.5C427.5,312.4,399.8,284.7,395.6,275.4z"/>
</g>
</svg>
